<?xml version="1.0" encoding="UTF-8" standalone="no"?>
<!-- Created with Inkscape (http://www.inkscape.org/) -->

<svg
   version="1.1"
   id="svg2"
   width="1138.1333"
   height="1138.1333"
   viewBox="0 0 1138.1333 1138.1333"
   xmlns="http://www.w3.org/2000/svg"
   xmlns:svg="http://www.w3.org/2000/svg">
  <defs
     id="defs6" />
  <g
     id="g8">
    <path 
       style="fill:#333;stroke-width:1.06667"
       d="m 534.56958,909.51552 c -12.43597,-0.7507 -23.18785,-1.7216 -23.89305,-2.1574 -0.70522,-0.4359 -2.77034,-0.9396 -4.58916,-1.1195 -10.2085,-1.0094 -39.32367,-6.5956 -41.70693,-8.002 -0.58666,-0.3462 -4.18666,-1.2529 -8,-2.0149 -3.81333,-0.762 -7.41333,-1.7381 -8,-2.1692 -0.58666,-0.4311 -2.63032,-1.1182 -4.54146,-1.5269 -9.59886,-2.0526 -49.46559,-17.94571 -57.85854,-23.06567 -0.88,-0.53682 -2.68518,-1.44499 -4.01152,-2.01814 -3.51802,-1.52027 -19.27234,-10.58842 -24.38614,-14.03662 -2.41871,-1.63093 -4.69871,-2.66427 -5.06667,-2.29631 -0.36794,0.36796 -0.669,0.18734 -0.669,-0.40136 0,-0.5887 -3.48,-3.4287 -7.73333,-6.31111 -4.25333,-2.88241 -7.97333,-5.48075 -8.26667,-5.77408 -0.29333,-0.29333 -2.93333,-2.19628 -5.86666,-4.22877 -2.93334,-2.03248 -5.90276,-4.19248 -6.59871,-4.8 -0.69596,-0.60751 -4.53596,-3.50456 -8.53334,-6.4379 -3.99737,-2.93333 -7.6518,-5.93333 -8.12096,-6.66666 -0.46915,-0.73334 -1.29428,-1.33334 -1.83363,-1.33334 -0.80624,0 -15.32138,-10.86311 -24.00679,-17.96665 -1.18806,-0.97167 -6.22806,-4.85874 -11.2,-8.63794 -4.97195,-3.77919 -11.74557,-9.05919 -15.0525,-11.73334 -3.30693,-2.67413 -7.55953,-6.06207 -9.45023,-7.52873 -1.89071,-1.46667 -5.25573,-4.10667 -7.47785,-5.86667 -7.45719,-5.9064 -20.04632,-14.8093 -27.38357,-19.36536 -7.28818,-4.52561 -25.99771,-14.23464 -27.43048,-14.23464 -0.41928,0 -2.80529,-0.93067 -5.30225,-2.06818 -3.19567,-1.4558 -8.15283,-2.27628 -16.74149,-2.77095 -6.71084,-0.38653 -12.68153,-1.06967 -13.2682,-1.51807 -0.58667,-0.44842 -2.26667,-1.13457 -3.73333,-1.52479 -4.84174,-1.28819 -7.90521,-6.60795 -8.35128,-14.50211 -0.21941,-3.88315 0.15597,-8.95528 0.83419,-11.27142 0.67821,-2.31612 1.8947,-6.61114 2.70331,-9.54448 1.38855,-5.03717 5.20817,-13.8445 8.54742,-19.70875 2.72694,-4.78895 9.8873,-11.44865 14.93828,-13.89378 4.16207,-2.01483 6.16998,-2.31905 12.37559,-1.87504 4.41342,0.31577 8.15082,1.18248 9.24663,2.14428 1.01155,0.88787 2.8688,1.92743 4.12722,2.31014 1.25841,0.38271 4.61841,3.19529 7.46667,6.25018 2.84824,3.05489 5.57431,5.42665 6.05792,5.27056 0.4836,-0.15607 0.56228,0.22915 0.17484,0.85605 -0.38745,0.6269 -0.0819,1.88998 0.67907,2.80685 1.63588,1.97112 3.27464,4.69407 6.32294,10.50618 12.5057,23.84425 33.79373,49.08275 56.12706,66.54269 2.53924,1.98515 4.6168,4.02515 4.6168,4.53333 0,0.50819 0.6,0.93165 1.33333,0.94101 1.20368,0.0154 6.04907,3.69202 10.48949,7.95935 0.92921,0.89298 2.22536,1.62362 2.88033,1.62362 0.65496,0 1.5747,0.6014 2.04385,1.33642 0.46915,0.73504 3.013,2.73014 5.653,4.43354 2.64,1.70341 6.24,4.09007 8,5.3037 24.55831,16.93444 52.09037,32.5413 80.53333,45.65125 13.33252,6.14524 15.51669,7.11489 22.4,9.94447 3.81333,1.56759 8.37333,3.47486 10.13333,4.2384 1.76,0.76354 4.4,1.7404 5.86667,2.17079 1.46667,0.43039 3.14667,1.14467 3.73333,1.5873 0.58667,0.44263 5.86667,2.37784 11.73334,4.30047 5.86666,1.92265 11.14666,3.81146 11.73333,4.19739 0.58667,0.38592 3.70667,1.33432 6.93333,2.10756 3.22667,0.77324 6.34667,1.6945 6.93334,2.04724 1.51152,0.90885 13.67346,4.23853 21.87164,5.988 3.81608,0.81434 8.16435,1.94676 9.66284,2.51647 1.49849,0.56973 6.53625,1.58358 11.19502,2.25298 4.65877,0.66942 9.43049,1.6323 10.60383,2.13975 1.17333,0.50744 7.89333,1.47312 14.93333,2.14594 7.04,0.67282 14.48,1.50586 16.53333,1.85119 5.15181,0.86643 46.49096,0.90503 51.73333,0.0483 2.34667,-0.3835 10.74667,-1.24233 18.66667,-1.90849 7.92,-0.66618 15.36,-1.62088 16.53333,-2.12156 1.17334,-0.50067 6.93334,-1.67844 12.8,-2.61725 19.23759,-3.07847 48.01652,-10.06603 61.33333,-14.89179 2.05334,-0.74409 5.29334,-1.90096 7.2,-2.57082 13.30186,-4.67328 24.0844,-8.75351 28.78838,-10.89386 2.48694,-1.13157 4.88269,-2.0574 5.32388,-2.0574 1.53524,0 28.17027,-13.14754 41.35441,-20.41329 2.93333,-1.61656 6.3486,-3.4084 7.58948,-3.98186 4.21716,-1.94894 34.40294,-21.84616 41.81708,-27.56412 9.06971,-6.99476 21.52967,-17.30586 24.49139,-20.26758 1.92857,-1.92857 3.75304,-3.50649 4.05439,-3.50649 0.95859,0 19.64766,-18.91465 19.64766,-19.8848 0,-0.51149 1.56,-2.37881 3.46666,-4.14959 3.69379,-3.43056 13.37009,-15.98223 20.66945,-26.81151 5.31949,-7.892 16.09549,-29.79466 18.01709,-36.62077 0.4129,-1.46667 1.3593,-4.10667 2.103,-5.86667 2.6759,-6.33221 6.0148,-26.08965 6.0761,-35.95411 0.037,-6.01512 -0.8273,-14.43625 -2.1991,-21.41793 -1.2606,-6.41574 -2.3386,-16.38091 -2.437,-22.52678 -0.1559,-9.74161 0.1017,-11.47138 2.2185,-14.89642 1.3198,-2.13561 3.5923,-4.17555 5.0626,-4.54456 4.4936,-1.12782 12.8929,0.42694 17.678,3.27232 6.7553,4.01683 19.8135,16.05542 28.0114,25.82416 2.3466,2.79631 6.0712,7.02501 8.2767,9.3971 2.2055,2.37209 4.2779,5.15289 4.6052,6.17956 0.3273,1.02667 0.9414,1.86667 1.3645,1.86667 0.4231,0 3.1507,3.384 6.0614,7.52 2.9107,4.136 7.3322,10.36843 9.8255,13.84985 2.4933,3.48142 4.5333,6.79357 4.5333,7.36033 0,0.56676 0.624,1.41433 1.3865,1.88348 0.7626,0.46915 2.7393,3.19531 4.3928,6.05812 1.6535,2.86282 4.043,6.73282 5.3101,8.6 3.2093,4.72914 5.316,11.63451 4.5187,14.81124 -1.0336,4.11804 -9.1653,5.5533 -18.6188,3.28626 -3.9174,-0.93942 -11.6826,-1.77628 -17.2559,-1.85968 -10.6794,-0.1598 -14.6651,1.08992 -22.6925,7.1153 -4.2181,3.16606 -16.6452,15.46774 -20.3316,20.12634 -2.6484,3.34675 -17.9574,25.4205 -26.111,37.64875 -1.5647,2.34667 -3.1486,4.50667 -3.5196,4.8 -0.3711,0.29334 -1.8156,2.21524 -3.21,4.27091 -3.311,4.88102 -14.76061,19.42608 -16.3701,20.79576 -0.68939,0.58666 -1.69859,1.87034 -2.24267,2.85261 -1.48257,2.67659 -11.28566,13.36257 -24.56815,26.78076 -13.89373,14.0357 -17.78001,17.47829 -31.33849,27.76059 -5.56458,4.21999 -11.05508,8.5127 -12.20113,9.53937 -1.14605,1.02667 -2.67322,1.86667 -3.39371,1.86667 -0.72049,0 -1.46997,0.37576 -1.66553,0.83504 -1.18775,2.78945 -54.2314,32.23162 -58.06921,32.23162 -0.37997,0 -4.10984,1.65325 -8.28859,3.67388 -4.17877,2.02063 -9.51775,4.37403 -11.86442,5.22977 -2.34667,0.85574 -7.62667,2.82865 -11.73333,4.38422 -4.10667,1.55558 -9.14667,3.30481 -11.2,3.88719 -2.05334,0.58232 -4.69334,1.46672 -5.86667,1.96512 -15.92166,6.7636 -59.66644,17.1341 -89.6,21.2413 -18.30746,2.512 -48.94114,4.4979 -66.13333,4.2872 -6.45333,-0.079 -21.90821,-0.758 -34.34419,-1.5088 z M 343.84711,456.0848 c -1.17333,-0.29739 -3.64588,-1.22811 -5.49454,-2.06826 -1.84866,-0.84014 -3.67172,-1.52753 -4.05124,-1.52753 -3.21117,0 -18.57821,-12.83689 -25.41689,-21.23206 -6.07112,-7.45289 -13.39189,-25.45416 -16.5253,-40.63461 -1.97414,-9.56407 -2.94366,-34.723 -1.45744,-37.82038 0.57522,-1.1988 1.33242,-4.98198 1.68268,-8.4071 0.65478,-6.40294 3.49079,-15.92459 7.11929,-23.90241 1.13316,-2.49145 2.54962,-5.61145 3.14768,-6.93334 2.56646,-5.67269 3.9383,-7.49342 13.1267,-17.42186 8.68644,-9.38606 15.80139,-14.05696 23.61648,-15.50398 3.51225,-0.65032 7.2194,-1.60881 8.23811,-2.13 2.37922,-1.21722 11.17838,-1.23376 11.92703,-0.0224 0.31449,0.50886 2.68569,1.16346 5.26935,1.45467 2.58366,0.29121 7.40944,1.90264 10.72396,3.58093 13.00216,6.58359 23.08151,17.57628 30.56863,33.3386 2.41237,5.07868 4.76657,9.9779 5.23155,10.88716 0.46498,0.90927 1.43059,4.50927 2.14579,8 0.71521,3.49074 1.85114,7.49989 2.52427,8.90922 1.77206,3.71013 1.65066,45.11754 -0.13402,45.71243 -0.71982,0.23993 -1.30876,1.87934 -1.30876,3.6431 0,3.17748 -6.08389,22.25609 -7.42431,23.28204 -0.38324,0.29333 -1.32778,2.09333 -2.09898,4 -0.7712,1.90667 -1.70679,3.46667 -2.07906,3.46667 -0.37228,0 -1.33437,1.48538 -2.13798,3.30085 -0.8036,1.81547 -4.98354,6.86931 -9.28874,11.23077 -6.20343,6.28448 -9.75706,8.85572 -17.12613,12.39165 -8.57078,4.11254 -10.05549,4.48069 -18.97163,4.70415 -5.32025,0.13333 -10.63316,-9e-4 -11.8065,-0.29829 z m 295.30583,-28.69573 c 0.90732,-6.61956 3.71644,-10.37174 20.68717,-27.63213 14.24677,-14.48993 19.30232,-19.26654 33.37611,-31.5346 3.7016,-3.22666 7.60784,-6.70666 8.68054,-7.73333 1.07269,-1.02667 2.24697,-1.86667 2.60952,-1.86667 0.36256,0 2.20679,-1.32 4.09831,-2.93333 1.89151,-1.61333 4.51922,-3.65333 5.83932,-4.53333 1.32012,-0.88 5.11587,-3.54928 8.43503,-5.93174 3.31916,-2.38245 6.75483,-4.6742 7.63483,-5.09279 0.88,-0.41859 5.44,-3.10807 10.13333,-5.97664 8.19913,-5.0113 24.60198,-13.49667 34.66667,-17.9334 2.64,-1.16378 6.55254,-2.89959 8.69453,-3.85736 2.142,-0.95777 4.542,-1.74436 5.33334,-1.74798 0.79134,-0.003 2.81118,-0.72232 4.48854,-1.59714 3.12248,-1.6285 10.1488,-3.78884 21.48359,-6.60542 3.51999,-0.87468 7.35999,-1.9725 8.53333,-2.43959 3.20525,-1.27598 13.10318,-3.21794 16.40137,-3.21794 1.59791,0 3.3654,-0.46011 3.92776,-1.02247 2.78409,-2.78409 56.18315,-4.63328 64.375,-2.22928 5.01797,1.4726 8.62917,5.12745 8.62917,8.73349 0,3.82421 -1.9383,4.80148 -11.19997,5.6467 -14.41129,1.31517 -42.68848,5.0499 -44.8,5.917 -1.17333,0.48182 -5.73333,1.48098 -10.13333,2.22036 -4.4,0.73937 -8.48,1.68446 -9.06667,2.10017 -0.58667,0.41572 -2.98667,1.07425 -5.33333,1.46338 -8.01108,1.32844 -28.17533,7.78679 -37.86667,12.1282 -11.39151,5.10304 -22.63234,10.83167 -23.46666,11.95924 -0.29334,0.39642 -2.09334,1.39951 -4,2.22904 -3.53366,1.53741 -4.99979,3.9433 -1.6,2.62557 6.98948,-2.70908 27.24476,-9.10474 28.83505,-9.10474 1.06605,0 2.39428,-0.40255 2.95161,-0.89456 1.26011,-1.11241 13.85132,-3.3721 18.78965,-3.3721 2.01502,0 4.17117,-0.50749 4.79144,-1.12776 1.46099,-1.46099 52.47592,-1.41776 56.33048,0.0478 1.52422,0.57951 5.75566,1.01272 9.4032,0.96271 3.64754,-0.05 9.7519,0.44761 13.56523,1.10584 7.38767,1.27523 21.51227,5.35118 22.39997,6.46403 0.2934,0.3677 2.2134,1.33969 4.2667,2.15996 2.0533,0.82029 5.3871,3.03628 7.4084,4.92443 3.3385,3.1186 3.5604,3.68472 2.4229,6.18135 -0.8807,1.93296 -2.1293,2.78231 -4.2084,2.86278 -1.6259,0.0629 -25.99624,0.18293 -54.15624,0.26666 -44.65235,0.13278 -52.35947,0.39571 -60.26666,2.05596 -14.89231,3.12692 -26.66667,6.3418 -26.66667,7.28109 0,0.48486 -0.68583,0.6184 -1.52407,0.29674 -1.45229,-0.5573 -12.76732,2.83864 -17.01632,5.10706 -1.10388,0.58932 -4.22388,1.69452 -6.93333,2.45601 -7.99881,2.24802 -24.12836,8.90886 -23.38159,9.65563 0.24307,0.24307 2.33494,-0.13186 4.64863,-0.83316 5.05972,-1.53365 58.54566,-1.84723 61.80668,-0.36236 1.17334,0.53427 3.55048,1.08298 5.28255,1.21937 5.47444,0.43109 19.16387,2.75983 21.38412,3.63772 1.17333,0.46394 4.77333,1.4556 8,2.20368 3.22666,0.7481 6.58666,1.72147 7.46666,2.16306 0.88,0.4416 4.84,2.38661 8.8,4.32224 3.96,1.93563 7.2,3.90106 7.2,4.36761 0,0.46655 0.61805,0.84826 1.37343,0.84826 1.61934,0 10.65323,9.10201 12.36994,12.46322 1.63549,3.20217 1.49065,6.58847 -0.36099,8.44012 -2.40497,2.40497 -12.6611,3.83773 -22.82329,3.18838 -20.34109,-1.29979 -26.3857,-1.87773 -28.42575,-2.71785 -1.17334,-0.48319 -5.97334,-1.44122 -10.66667,-2.12894 -10.4982,-1.53831 -11.33538,-1.6954 -13.33333,-2.5019 -2.29551,-0.92661 -19.24662,-3.86049 -29.86667,-5.16929 -12.56482,-1.54848 -50.86001,-0.54955 -59.73333,1.55813 -3.81333,0.90578 -9.33333,2.18548 -12.26667,2.84377 -2.93333,0.65828 -9.41333,2.15326 -14.39999,3.32216 -4.98667,1.16889 -12.90667,2.98177 -17.6,4.02861 -4.69334,1.04685 -9.25334,2.20472 -10.13334,2.57305 -3.15668,1.32118 -14.37727,2.9005 -20.60755,2.9005 h -6.34909 z"
       id="path371" />
  </g>
</svg>
